PathFileType	4	(X/Y/Z)	/Users/itak/Documents/Research/Walk-IL/dataset/trc/00339_00011.trc
DataRate	CameraRate	NumFrames	NumMarkers	Units	OrigDataRate	OrigDataStartFrame	OrigNumFrames
100.000000	100.000000	4	53	mm	100.000000	260	695
Frame#	Time	RPSI			LPSI			L3			STRN			T10			C7			CLAV			RBAK			LBAK			LSHO			LUPA			LAEL			LAOL			LWTS			LWPS			LFRA			LIFD			LHPS			LHTS			RSHO			RUPA			RAEL			RAOL			RWTS			RWPS			RFRA			RIFD			RHTS			RHPS			RBHD			LFHD			RFHD			LBHD			LHIP			RHIP			RASI			LASI			LKNE			LTHI			LANK			LTIP			LTOE			LMT1			LMT5			LHEE			RKNE			RTHI			RANK			RTIP			RTOE			RMT5			RHEE			RMT1			
		X1	Y1	Z1	X2	Y2	Z2	X3	Y3	Z3	X4	Y4	Z4	X5	Y5	Z5	X6	Y6	Z6	X7	Y7	Z7	X8	Y8	Z8	X9	Y9	Z9	X10	Y10	Z10	X11	Y11	Z11	X12	Y12	Z12	X13	Y13	Z13	X14	Y14	Z14	X15	Y15	Z15	X16	Y16	Z16	X17	Y17	Z17	X18	Y18	Z18	X19	Y19	Z19	X20	Y20	Z20	X21	Y21	Z21	X22	Y22	Z22	X23	Y23	Z23	X24	Y24	Z24	X25	Y25	Z25	X26	Y26	Z26	X27	Y27	Z27	X28	Y28	Z28	X29	Y29	Z29	X30	Y30	Z30	X31	Y31	Z31	X32	Y32	Z32	X33	Y33	Z33	X34	Y34	Z34	X35	Y35	Z35	X36	Y36	Z36	X37	Y37	Z37	X38	Y38	Z38	X39	Y39	Z39	X40	Y40	Z40	X41	Y41	Z41	X42	Y42	Z42	X43	Y43	Z43	X44	Y44	Z44	X45	Y45	Z45	X46	Y46	Z46	X47	Y47	Z47	X48	Y48	Z48	X49	Y49	Z49	X50	Y50	Z50	X51	Y51	Z51	X52	Y52	Z52	X53	Y53	Z53	

261	2.6	847.9480590820312	967.1554565429688	335.9000549316406	720.3118896484375	958.278564453125	359.2780151367188	791.7511596679688	1027.7080078125	348.0325317382812	716.2911376953125	1198.76123046875	114.3034210205078	786.6773681640625	1146.99658203125	350.7586669921875	748.6284790039062	1391.60009765625	301.7978515625	715.95068359375	1325.299072265625	153.6600952148438	837.1961059570312	1258.833740234375	336.9666748046875	658.275146484375	1352.370361328125	341.3152465820312	580.5139770507812	1361.33203125	274.3555908203125	528.4950561523438	1251.10302734375	333.7277221679688	516.8630981445312	1052.351440429688	374.1610107421875	595.3799438476562	1050.297485351562	407.9678344726562	516.5139770507812	793.4384765625	325.2685241699219	484.8930358886719	795.3885498046875	386.8993225097656	504.8361511230469	947.9722900390625	389.0441284179688	520.091064453125	635.5225219726562	352.6094970703125	491.6318664550781	726.9406127929688	401.7411193847656	495.5360107421875	716.3285522460938	338.4109802246094	888.8929443359375	1384.188720703125	205.5795288085938	959.2561645507812	1328.702758789062	197.82568359375	1051.533935546875	1085.877563476562	129.2407073974609	983.7435913085938	1047.80908203125	184.3588714599609	1025.435791015625	881.9905395507812	-24.39974403381348	1100.271850585938	877.68994140625	-7.99323558807373	1068.1328125	1028.613403320312	86.95840454101562	1063.272827148438	723.4922485351562	-82.0252685546875	1053.29833984375	795.983642578125	-81.81895446777344	1111.370483398438	800.0174560546875	-43.92976760864258	795.138916015625	1599.326782226562	190.5822296142578	618.92333984375	1569.86083984375	83.01251220703125	714.341796875	1578.802124023438	51.01436614990234	670.47314453125	1587.570678710938	261.8092956542969	604.6072387695312	901.431884765625	286.8294372558594	945.8827514648438	913.568115234375	243.6335754394531	888.6588134765625	936.3421630859375	143.0858459472656	649.259521484375	928.5191040039062	161.229248046875	624.4768676757812	480.1135559082031	57.96884536743164	605.3177490234375	606.4942016601562	117.5181503295898	722.7901000976562	78.38377380371094	196.7442474365234	663.1343383789062	264.7900085449219	125.576789855957	723.8964233398438	45.50226211547852	-13.26193046569824	781.76953125	43.36061859130859	43.06209564208984	676.8065795898438	54.12900924682617	83.62364959716797	795.8021850585938	84.94172668457031	211.6623840332031	929.1278686523438	448.4870300292969	246.6119537353516	942.6965942382812	704.0205688476562	185.0742034912109	920.1532592773438	46.59444427490234	384.7606506347656	923.5067138671875	328.6242065429688	259.3098449707031	876.017822265625	34.29888916015625	191.4111328125	940.6932983398438	26.70086479187012	288.8020629882812	869.59228515625	56.22241592407227	431.8849487304688	831.48779296875	34.74652862548828	242.0684661865234	
262	2.61	847.4556884765625	966.4528198242188	327.1595458984375	719.9757690429688	957.8342895507812	350.8546447753906	791.8714599609375	1026.899047851562	339.6333618164062	715.2203979492188	1197.85009765625	106.5041732788086	787.5371704101562	1146.174926757812	342.7789001464844	749.0031127929688	1390.757690429688	293.6505737304688	715.0768432617188	1324.384643554688	145.8285980224609	838.0543212890625	1258.081420898438	328.3441467285156	659.0601196289062	1351.495483398438	334.0743103027344	580.6672973632812	1360.177612304688	267.8045654296875	529.7432250976562	1249.654174804688	327.5736083984375	519.7342529296875	1051.058227539062	368.6004638671875	598.8714599609375	1049.376708984375	401.3973999023438	518.6497192382812	791.5637817382812	322.2746887207031	488.5695190429688	794.29248046875	384.6230163574219	508.2410278320312	946.8692626953125	384.5618896484375	523.2091674804688	634.0379028320312	351.7289123535156	495.6668090820312	726.0960083007812	400.1891479492188	498.1109313964844	714.6046752929688	336.9275207519531	888.4487915039062	1383.390258789062	196.2792510986328	958.7103881835938	1327.95068359375	187.7148284912109	1050.336791992188	1085.9169921875	115.4771499633789	983.3106689453125	1047.431518554688	171.3196258544922	1022.736022949219	884.5932006835938	-41.21723556518555	1097.57275390625	879.8842163085938	-25.4105224609375	1066.555786132812	1029.288940429688	72.17745208740234	1059.66455078125	727.2897338867188	-102.1240539550781	1049.848876953125	799.6812133789062	-100.4181900024414	1108.159790039062	802.7996826171875	-62.82609939575195	794.5477905273438	1598.470703125	181.7526092529297	617.0343017578125	1568.9208984375	76.25569915771484	712.093505859375	1577.874267578125	43.16851425170898	670.7210693359375	1586.760986328125	254.4593048095703	604.1962890625	901.1268310546875	278.7742919921875	945.1039428710938	912.4144897460938	234.7454681396484	887.9287109375	935.2711181640625	134.5390319824219	648.5445556640625	927.9108276367188	152.9444885253906	623.6793212890625	478.5448913574219	51.67455291748047	604.1168823242188	605.6322631835938	111.1664657592773	721.1923217773438	69.17121887207031	164.2272338867188	661.6345825195312	259.7651672363281	106.2696685791016	715.2333374023438	48.58712005615234	-47.11291122436523	774.8109741210938	42.68345260620117	7.018085479736328	671.4329223632812	51.95296859741211	51.49326705932617	794.6927490234375	74.42790222167969	177.0971984863281	928.5889892578125	448.2977600097656	242.7099914550781	941.6974487304688	702.8980102539062	178.2055511474609	919.9246215820312	47.47624588012695	384.5185241699219	923.1426391601562	328.284912109375	256.5575561523438	875.9945068359375	34.2165641784668	191.3575744628906	940.6388549804688	26.96161270141602	288.6619567871094	869.4568481445312	57.31477355957031	431.5201110839844	830.97021484375	33.75537490844727	242.5865631103516	
263	2.62	846.6814575195312	965.67236328125	318.3648376464844	719.3597412109375	957.26953125	342.2512817382812	791.6896362304688	1025.968139648438	331.1374816894531	714.0843505859375	1196.905029296875	98.61662292480469	788.203857421875	1145.219116210938	334.7689514160156	749.177490234375	1389.787963867188	285.5461730957031	714.1135864257812	1323.412353515625	137.9803009033203	838.6870727539062	1257.20458984375	319.7820739746094	659.635986328125	1350.503295898438	326.801025390625	580.6434936523438	1358.922607421875	261.1461791992188	530.7656860351562	1248.102416992188	321.2423706054688	522.4347534179688	1049.651977539062	362.7427673339844	602.094970703125	1048.281982421875	394.6172180175781	520.86865234375	789.5687866210938	318.9539489746094	492.278564453125	793.0728759765625	381.9561462402344	511.5081481933594	945.6544799804688	379.7195434570312	526.6738891601562	632.4765014648438	350.5856628417969	499.7883911132812	725.146240234375	398.2615356445312	500.9098205566406	712.7485961914062	335.1178894042969	887.8634643554688	1382.505615234375	187.1118316650391	958.0186767578125	1327.111572265625	177.7534484863281	1048.81884765625	1085.811889648438	101.992919921875	982.4411010742188	1046.989868164062	158.4541015625	1019.68017578125	887.0761108398438	-57.68161392211914	1094.510131835938	881.8956298828125	-42.44809341430664	1064.638549804688	1029.805786132812	57.70806503295898	1055.563720703125	730.9006958007812	-121.6847076416016	1046.01611328125	803.2352294921875	-118.5508346557617	1104.535888671875	805.4144897460938	-81.22250366210938	793.838623046875	1597.514892578125	173.0075836181641	615.1190185546875	1567.90478515625	69.48543548583984	709.8302001953125	1576.859252929688	35.37085723876953	670.831298828125	1585.861328125	247.1130828857422	603.572998046875	900.6058349609375	270.4218444824219	944.1669921875	911.2620849609375	225.9248046875	887.1395263671875	934.2304077148438	125.9745712280273	647.7115478515625	927.13720703125	144.40625	623.173828125	476.3530883789062	46.03317642211914	603.0949096679688	604.169677734375	105.2318496704102	718.8317260742188	60.91589736938477	131.5447692871094	659.8582763671875	254.9787750244141	87.21465301513672	705.9429931640625	52.8288688659668	-80.13793182373047	767.131103515625	43.29983139038086	-28.48560523986816	665.419677734375	50.70800018310547	19.75444412231445	792.77587890625	65.09161376953125	142.2777252197266	928.035888671875	448.1701354980469	238.6733093261719	940.7183837890625	701.8148803710938	171.29736328125	919.6658325195312	48.43013763427734	384.2287902832031	922.7738037109375	327.9717102050781	253.7016296386719	875.970458984375	34.09535980224609	191.2851409912109	940.5851440429688	27.23896598815918	288.5234069824219	869.2568359375	58.5370979309082	431.1255798339844	830.5645141601562	32.99593734741211	242.9157409667969	
264	2.63	845.633056640625	964.8062744140625	309.5309753417969	718.4715576171875	956.56640625	333.4775695800781	791.2046508789062	1024.881225585938	322.5330505371094	712.8724975585938	1195.923217773438	90.62980651855469	788.6323852539062	1144.116943359375	326.7087707519531	749.1506958007812	1388.6767578125	277.4837646484375	713.0546875	1322.379150390625	130.1159973144531	839.0711059570312	1256.173583984375	311.2362060546875	660.0025634765625	1349.382080078125	319.4996032714844	580.438720703125	1357.568969726562	254.3782348632812	531.5553588867188	1246.459106445312	314.7495422363281	524.939697265625	1048.140502929688	356.6172180175781	605.0540161132812	1047.01416015625	387.5453491210938	523.159423828125	787.471435546875	315.2845764160156	495.9744567871094	791.7320556640625	378.8652038574219	514.6136474609375	944.329833984375	374.5284423828125	530.4814453125	630.8446655273438	349.1229248046875	503.9677734375	724.0857543945312	395.9212646484375	503.9286804199219	710.7728881835938	332.9407043457031	887.1358642578125	1381.523803710938	178.0816497802734	957.1798095703125	1326.166870117188	167.9423828125	1046.997802734375	1085.550659179688	88.79331970214844	981.0523071289062	1046.382080078125	145.5752258300781	1016.257751464844	889.4273681640625	-73.77567291259766	1091.085815429688	883.7028198242188	-59.0963249206543	1062.397338867188	1030.148681640625	43.55722427368164	1050.974609375	734.2910766601562	-140.6896057128906	1041.795288085938	806.6090087890625	-136.2074279785156	1100.504272460938	807.8256225585938	-99.10786437988281	793.0145874023438	1596.46044921875	164.3465270996094	613.1776123046875	1566.815551757812	62.70459365844727	707.5526733398438	1575.752197265625	27.61968040466309	670.8004150390625	1584.8681640625	239.7728576660156	602.73681640625	899.8262329101562	261.76416015625	943.1009521484375	910.1292114257812	217.2003021240234	886.2937622070312	933.2027587890625	117.3938446044922	646.7649536132812	926.1823120117188	135.6167449951172	622.9351806640625	473.6390686035156	40.91438293457031	602.2198486328125	602.0918579101562	99.6573486328125	715.7061767578125	53.77669143676758	98.93466949462891	657.7898559570312	250.5796051025391	68.50763702392578	696.1547241210938	58.34030532836914	-112.1392517089844	758.8235473632812	45.30423355102539	-63.18123245239258	658.8136596679688	50.55118179321289	-11.41552734375	790.0209350585938	57.04022598266602	107.5294647216797	927.4786376953125	448.08837890625	234.5214691162109	939.7850341796875	700.7770385742188	164.3629760742188	919.386962890625	49.456787109375	383.8921203613281	922.4130249023438	327.7077331542969	250.7625427246094	875.9585571289062	33.95613861083984	191.1916809082031	940.5296630859375	27.53363800048828	288.3800048828125	868.9929809570312	59.88874816894531	430.7020263671875	830.2811889648438	32.4959831237793	243.0494689941406	
